<?xml version="1.0" encoding="UTF-8"?>
<svg width="16px" height="16px" viewBox="0 0 16 16" version="1.1" xmlns="http://www.w3.org/2000/svg" xmlns:xlink="http://www.w3.org/1999/xlink">
    <!-- Generator: Sketch 42 (36781) - http://www.bohemiancoding.com/sketch -->
    <title>close</title>
    <desc>Created with Sketch.</desc>
    <defs></defs>
    <g id="Desktop" stroke="none" stroke-width="1" fill="none" fill-rule="evenodd" opacity="0.2">
        <g id="Client" transform="translate(-868.000000, -696.000000)" fill="#0F2632">
            <path d="M883.525195,709.40987 L878.097662,703.982338 L883.525195,698.554805 C884.111169,697.968831 884.111169,697.025455 883.525195,696.439481 C882.939221,695.853506 881.995844,695.853506 881.40987,696.439481 L875.982338,701.867013 L870.554805,696.439481 C869.968831,695.853506 869.025455,695.853506 868.439481,696.439481 C867.853506,697.025455 867.853506,697.968831 868.439481,698.554805 L873.867013,703.982338 L868.439481,709.40987 C867.853506,709.995886 867.853506,710.939262 868.439481,711.525195 C869.025455,712.111169 869.968831,712.111169 870.554805,711.525195 L875.982338,706.097704 L881.40987,711.525195 C881.995844,712.111169 882.939221,712.111169 883.525195,711.525195 C884.107013,710.939262 884.107013,709.991688 883.525195,709.40987" id="close"></path>
        </g>
    </g>
</svg>