<?xml version="1.0" encoding="UTF-8"?>
<svg width="54px" height="56px" viewBox="0 0 54 56" version="1.1" xmlns="http://www.w3.org/2000/svg" xmlns:xlink="http://www.w3.org/1999/xlink">
    <!-- Generator: Sketch 42 (36781) - http://www.bohemiancoding.com/sketch -->
    <title>content</title>
    <desc>Created with Sketch.</desc>
    <defs></defs>
    <g id="Desktop" stroke="none" stroke-width="1" fill="none" fill-rule="evenodd">
        <g id="Home" transform="translate(-191.000000, -1384.000000)">
            <g id="Services" transform="translate(-119.000000, 1000.000000)">
                <g id="content" transform="translate(310.000000, 384.000000)">
                    <path d="M20.3636364,47.0909091 C21.7687273,47.0909091 22.9090909,48.2312727 22.9090909,49.6363636 C22.9090909,51.0414545 21.7687273,52.1818182 20.3636364,52.1818182 C18.9585455,52.1818182 17.8181818,51.0414545 17.8181818,49.6363636 C17.8181818,48.2312727 18.9585455,47.0909091 20.3636364,47.0909091" id="Fill-1" fill="#EB4E27"></path>
                    <path d="M20.3636364,5.09090909 C21.0661818,5.09090909 21.6363636,5.66109091 21.6363636,6.36363636 C21.6363636,7.06618182 21.0661818,7.63636364 20.3636364,7.63636364 C19.6610909,7.63636364 19.0909091,7.06618182 19.0909091,6.36363636 C19.0909091,5.66109091 19.6610909,5.09090909 20.3636364,5.09090909" id="Fill-3" fill="#EB4E27"></path>
                    <path d="M39.4545455,31.8181818 C38.7507273,31.8181818 38.1818182,32.3883636 38.1818182,33.0909091 L38.1818182,43.2727273 L6.36363636,43.2727273 C5.65981818,43.2727273 5.09090909,43.8429091 5.09090909,44.5454545 C5.09090909,45.248 5.65981818,45.8181818 6.36363636,45.8181818 L38.1818182,45.8181818 L38.1818182,49.6363636 C38.1818182,51.7414545 36.4687273,53.4545455 34.3636364,53.4545455 L6.36363636,53.4545455 C4.25854545,53.4545455 2.54545455,51.7414545 2.54545455,49.6363636 L2.54545455,16.5454545 C2.54545455,15.8429091 1.97654545,15.2727273 1.27272727,15.2727273 C0.568909091,15.2727273 0,15.8429091 0,16.5454545 L0,49.6363636 C0,53.1452727 2.85472727,56 6.36363636,56 L34.3636364,56 C37.8725455,56 40.7272727,53.1452727 40.7272727,49.6363636 L40.7272727,44.5454545 L40.7272727,33.0909091 C40.7272727,32.3870909 40.1583636,31.8181818 39.4545455,31.8181818" id="Fill-5" fill="#EB4E27"></path>
                    <path d="M1.27272727,12.7272727 L34.3636364,12.7272727 C35.0661818,12.7272727 35.6363636,12.1570909 35.6363636,11.4545455 C35.6363636,10.752 35.0674545,10.1818182 34.3636364,10.1818182 L2.54545455,10.1818182 L2.54545455,6.36363636 C2.54545455,4.25854545 4.25854545,2.54545455 6.36363636,2.54545455 L34.3636364,2.54545455 C36.4687273,2.54545455 38.1818182,4.25854545 38.1818182,6.36363636 L38.1818182,14 C38.1818182,14.7025455 38.7507273,15.2727273 39.4545455,15.2727273 C40.1583636,15.2727273 40.7272727,14.7025455 40.7272727,14 L40.7272727,6.36363636 C40.7272727,2.85472727 37.8725455,0 34.3636364,0 L6.36363636,0 C2.85472727,0 0,2.85472727 0,6.36363636 L0,11.4545455 C0,12.1570909 0.568909091,12.7272727 1.27272727,12.7272727" id="Fill-7" fill="#EB4E27"></path>
                    <path d="M29.8308182,34.5525091 L26.4644545,35.8977818 L27.8122727,32.5326909 L48.3642727,11.9819636 L50.3815455,14.0005091 L29.8308182,34.5525091 Z M53.0822727,13.1006909 L49.2640909,9.28250909 C48.7664545,8.7836 47.9608182,8.7836 47.4631818,9.28250909 L25.8268182,30.9188727 C25.7046364,31.0397818 25.6104545,31.1848727 25.5442727,31.3439636 L22.9988182,37.7076 C22.8104545,38.1823273 22.9199091,38.7206909 23.2813636,39.0821455 C23.5244545,39.3252364 23.8515455,39.4550545 24.1824545,39.4550545 C24.3415455,39.4550545 24.5019091,39.4245091 24.6546364,39.3634182 L31.0182727,36.8179636 C31.1786364,36.7543273 31.3237273,36.6576 31.4459091,36.5366909 L53.0822727,14.9003273 C53.5786364,14.4014182 53.5786364,13.5983273 53.0822727,13.1006909 L53.0822727,13.1006909 Z" id="Fill-9" fill="#57B947"></path>
                </g>
            </g>
        </g>
    </g>
</svg>