<?xml version="1.0" encoding="UTF-8"?>
<svg width="65px" height="56px" viewBox="0 0 65 56" version="1.1" xmlns="http://www.w3.org/2000/svg" xmlns:xlink="http://www.w3.org/1999/xlink">
    <!-- Generator: Sketch 42 (36781) - http://www.bohemiancoding.com/sketch -->
    <title>digital</title>
    <desc>Created with Sketch.</desc>
    <defs></defs>
    <g id="Desktop" stroke="none" stroke-width="1" fill="none" fill-rule="evenodd">
        <g id="Home" transform="translate(-368.000000, -1249.000000)">
            <g id="Services" transform="translate(-119.000000, 1000.000000)">
                <g id="digital" transform="translate(486.000000, 249.000000)">
                    <path d="M33.4210526,38.3157895 C34.2345263,38.3157895 34.8947368,38.9745263 34.8947368,39.7894737 C34.8947368,40.6044211 34.2345263,41.2631579 33.4210526,41.2631579 C32.6075789,41.2631579 31.9473684,40.6044211 31.9473684,39.7894737 C31.9473684,38.9745263 32.6075789,38.3157895 33.4210526,38.3157895" id="Fill-1" fill="#EB4E27"></path>
                    <path d="M9.84210526,48.6315789 C10.6555789,48.6315789 11.3157895,49.2903158 11.3157895,50.1052632 C11.3157895,50.9202105 10.6555789,51.5789474 9.84210526,51.5789474 C9.02863158,51.5789474 8.36842105,50.9202105 8.36842105,50.1052632 C8.36842105,49.2903158 9.02863158,48.6315789 9.84210526,48.6315789" id="Fill-3" fill="#57B947"></path>
                    <path d="M38.1126737,53.0526316 L28.7267789,53.0526316 C28.8947789,52.5898947 28.9994105,52.0976842 28.9994105,51.5789474 L28.9994105,47.1578947 L37.8415158,47.1578947 L37.8415158,51.5789474 C37.8415158,52.0976842 37.9490947,52.5898947 38.1126737,53.0526316 M61.4204632,0 L5.42046316,0 C2.98446316,0 0.999410526,1.98357895 0.999410526,4.42105263 L0.999410526,25.0526316 C0.999410526,25.8661053 1.66109474,26.5263158 2.47309474,26.5263158 C3.28656842,26.5263158 3.94677895,25.8661053 3.94677895,25.0526316 L3.94677895,4.42105263 C3.94677895,3.60905263 4.60993684,2.94736842 5.42046316,2.94736842 L61.4204632,2.94736842 C62.2324632,2.94736842 62.8941474,3.60905263 62.8941474,4.42105263 L62.8941474,42.7368421 C62.8941474,43.5488421 62.2324632,44.2105263 61.4204632,44.2105263 L23.1046737,44.2105263 C22.2926737,44.2105263 21.6309895,44.8707368 21.6309895,45.6842105 C21.6309895,46.4976842 22.2926737,47.1578947 23.1046737,47.1578947 L26.0520421,47.1578947 L26.0520421,51.5789474 C26.0520421,52.3909474 25.3903579,53.0526316 24.5783579,53.0526316 L23.1046737,53.0526316 C22.2926737,53.0526316 21.6309895,53.7128421 21.6309895,54.5263158 C21.6309895,55.3397895 22.2926737,56 23.1046737,56 L43.7362526,56 C44.5497263,56 45.2099368,55.3397895 45.2099368,54.5263158 C45.2099368,53.7128421 44.5497263,53.0526316 43.7362526,53.0526316 L42.2625684,53.0526316 C41.4520421,53.0526316 40.7888842,52.3909474 40.7888842,51.5789474 L40.7888842,47.1578947 L61.4204632,47.1578947 C63.8594105,47.1578947 65.8415158,45.1743158 65.8415158,42.7368421 L65.8415158,4.42105263 C65.8415158,1.98357895 63.8594105,0 61.4204632,0" id="Fill-5" fill="#EB4E27"></path>
                    <path d="M59.9473684,33.8947368 C59.9473684,33.0812632 59.2871579,32.4210526 58.4736842,32.4210526 L23.1052632,32.4210526 C22.2917895,32.4210526 21.6315789,33.0812632 21.6315789,33.8947368 C21.6315789,34.7082105 22.2917895,35.3684211 23.1052632,35.3684211 L58.4736842,35.3684211 C59.2871579,35.3684211 59.9473684,34.7082105 59.9473684,33.8947368" id="Fill-8" fill="#EB4E27"></path>
                    <path d="M15.7368421,51.5789474 C15.7368421,52.3909474 15.0751579,53.0526316 14.2631579,53.0526316 L5.42105263,53.0526316 C4.60905263,53.0526316 3.94736842,52.3909474 3.94736842,51.5789474 L3.94736842,33.8947368 C3.94736842,33.0827368 4.60905263,32.4210526 5.42105263,32.4210526 L14.2631579,32.4210526 C15.0751579,32.4210526 15.7368421,33.0827368 15.7368421,33.8947368 L15.7368421,51.5789474 Z M14.2631579,29.4736842 L5.42105263,29.4736842 C2.98357895,29.4736842 1,31.4572632 1,33.8947368 L1,51.5789474 C1,54.0164211 2.98357895,56 5.42105263,56 L14.2631579,56 C16.7006316,56 18.6842105,54.0164211 18.6842105,51.5789474 L18.6842105,33.8947368 C18.6842105,31.4572632 16.7006316,29.4736842 14.2631579,29.4736842 L14.2631579,29.4736842 Z" id="Fill-10" fill="#57B947"></path>
                </g>
            </g>
        </g>
    </g>
</svg>