<?xml version="1.0" encoding="UTF-8"?>
<svg width="16px" height="16px" viewBox="0 0 16 16" version="1.1" xmlns="http://www.w3.org/2000/svg" xmlns:xlink="http://www.w3.org/1999/xlink">
    <!-- Generator: Sketch 42 (36781) - http://www.bohemiancoding.com/sketch -->
    <title>email_white</title>
    <desc>Created with Sketch.</desc>
    <defs></defs>
    <g id="Symbols" stroke="none" stroke-width="1" fill="none" fill-rule="evenodd">
        <g id="top/transparent" transform="translate(-547.000000, -16.000000)" fill="#FFFFFF">
            <g id="Group">
                <g id="mid" transform="translate(399.000000, 16.000000)">
                    <g id="contact">
                        <path d="M150.296883,6.35550734 C150.221562,5.888438 150.53906,5.44815425 151.006701,5.37279744 L159.46927,4.01119638 C159.93634,3.93587529 160.376623,4.25337387 160.452016,4.72101464 L161.055763,8.47546216 L163.651216,6.0507587 L157.059102,0.392355391 C156.449712,-0.13078513 155.550181,-0.13078513 154.94079,0.392355391 L148.34932,6.05140156 L150.583703,8.13846367 L150.296883,6.35550734 Z M163.999929,7.13286101 L163.999929,14.5714349 C163.999929,15.3605029 163.360431,16 162.571364,16 L149.428565,16 C148.639497,16 148,15.3605029 148,14.5714349 L148,7.13286101 L152.174089,11.032415 L149.802992,13.4721541 C149.604886,13.6758318 149.60935,14.0011875 149.813599,14.199258 C149.913491,14.2963647 150.042384,14.3449002 150.171847,14.3449002 C150.305775,14.3449002 150.439703,14.2924005 150.540703,14.1886509 L153.130549,11.5234843 C153.189691,11.4631988 153.271191,11.4286276 153.356012,11.4286276 L158.643952,11.4286276 C158.728774,11.4286276 158.810237,11.4632345 158.869416,11.5234843 L161.459297,14.1886509 C161.560297,14.2924005 161.694225,14.3449002 161.828153,14.3449002 C161.957616,14.3449002 162.086473,14.2963647 162.186365,14.199258 C162.39065,14.0011518 162.395114,13.6758318 162.196972,13.4721541 L159.825876,11.032415 L163.999929,7.13286101 Z" id="email_white"></path>
                    </g>
                </g>
            </g>
        </g>
    </g>
</svg>