<?xml version="1.0" encoding="UTF-8"?>
<svg width="78px" height="24px" viewBox="0 0 78 24" version="1.1" xmlns="http://www.w3.org/2000/svg" xmlns:xlink="http://www.w3.org/1999/xlink">
    <!-- Generator: Sketch 42 (36781) - http://www.bohemiancoding.com/sketch -->
    <title>logo_color</title>
    <desc>Created with Sketch.</desc>
    <defs></defs>
    <g id="Symbols" stroke="none" stroke-width="1" fill="none" fill-rule="evenodd">
        <g id="top/white" transform="translate(-16.000000, -12.000000)">
            <g id="Group">
                <g id="logo_color" transform="translate(16.000000, 12.000000)">
                    <path d="M2.99455522,5.5225791 L2.99455522,14.8929672 C2.99455522,18.0029373 5.50524179,20.532609 8.5894209,20.532609 C11.6739582,20.532609 14.1832119,18.0029373 14.1842866,14.8929672 L14.1842866,0.358280597 L14.1835701,0.358280597 L9.17330149,6.69320597 L11.1885851,6.69320597 L11.1885851,14.8929672 C11.1885851,16.3376239 10.0233313,17.5132657 8.5894209,17.5132657 C7.15622687,17.5132657 5.98989851,16.3376239 5.98989851,14.8929672 L5.98989851,3.63302687 L2.99527164,5.5225791 L2.99455522,5.5225791 Z" id="Fill-1" fill="#EB4E27"></path>
                    <path d="M-3.58208955e-05,14.8928239 C-3.58208955e-05,19.6688239 3.85357612,23.5525254 8.58945672,23.5525254 C13.3256955,23.5525254 17.1793075,19.6688239 17.1793075,14.8928239 L17.1793075,6.69306269 L19.1938746,6.69306269 L14.1843224,0.358137313 L14.1843224,14.8928239 C14.1832478,18.002794 11.673994,20.5331821 8.58945672,20.5331821 C5.50527761,20.5331821 2.99459104,18.002794 2.99459104,14.8928239 L2.99459104,5.52243582 L-3.58208955e-05,3.63324179 L-3.58208955e-05,14.8928239 Z" id="Fill-3" fill="#57B947"></path>
                    <path d="M19.7558687,23.7401552 L22.4037493,23.7401552 L22.4037493,20.129409 L24.4154507,20.129409 C25.0917493,20.129409 25.7247045,20.0409313 26.315391,19.8629015 C26.9057194,19.6852299 27.4215403,19.4190806 27.8628537,19.0633791 C28.303809,18.708394 28.6509134,18.2667224 28.9030925,17.739797 C29.1552716,17.2125134 29.2813612,16.5989015 29.2813612,15.8996776 L29.2813612,15.8656478 C29.2813612,15.2466627 29.1753313,14.6817672 28.9632716,14.1720358 C28.7508537,13.6619463 28.4474507,13.2238567 28.0519881,12.8563343 C27.6565254,12.4895284 27.1750925,12.2058269 26.6076896,12.0052299 C26.0402866,11.8046328 25.3955104,11.7043343 24.6733612,11.7043343 L19.7558687,11.7043343 L19.7558687,23.7401552 Z M22.4037493,17.7738269 L22.4037493,14.1118567 L24.4498388,14.1118567 C25.1146746,14.1118567 25.6387343,14.2655284 26.0230925,14.5739463 C26.4070925,14.882006 26.5990925,15.3322746 26.5990925,15.9258269 L26.5990925,15.9598567 C26.5990925,16.4731701 26.4156896,16.9040955 26.0488836,17.2519164 C25.6820776,17.6000955 25.1662567,17.7738269 24.5014209,17.7738269 L22.4037493,17.7738269 Z M37.8239284,23.6627821 C38.3608836,23.4965731 38.8229731,23.2558567 39.210197,22.940991 C39.5974209,22.6257672 39.8990328,22.2360358 40.1157493,21.771797 C40.3321075,21.3072 40.4406448,20.777409 40.4406448,20.180991 L40.4406448,20.146603 C40.4406448,19.6196776 40.3568239,19.1665433 40.1909731,18.7882746 C40.0247642,18.4103642 39.7783164,18.0808119 39.4516299,17.7999761 C39.1249433,17.5187821 38.723391,17.2780657 38.2480478,17.0774687 C37.7723463,16.8768716 37.2307343,16.6966925 36.6232119,16.5358567 C36.107391,16.3983045 35.6800478,16.2779463 35.3422567,16.1747821 C35.0041075,16.0716179 34.7376,15.9630806 34.5427343,15.8480955 C34.3475104,15.7334687 34.2131821,15.6048716 34.1386746,15.4612299 C34.063809,15.3179463 34.0269134,15.1492299 34.0269134,14.9543642 L34.0269134,14.9196179 C34.0269134,14.6215881 34.1558687,14.3726328 34.4137791,14.1720358 C34.6716896,13.9714388 35.0585552,13.8707821 35.5743761,13.8707821 C36.090197,13.8707821 36.6060179,13.9771701 37.1218388,14.1888716 C37.6376597,14.4009313 38.1645851,14.6903642 38.7036896,15.0571701 L40.0792119,13.0626627 C39.4602269,12.5697672 38.7810627,12.1914985 38.0417194,11.9278567 C37.3023761,11.6645731 36.491391,11.532394 35.6087642,11.532394 C34.9897791,11.532394 34.4230925,11.6187224 33.9094209,11.7906627 C33.395391,11.962603 32.9537194,12.209409 32.5833313,12.530006 C32.2133015,12.8509612 31.9256597,13.2320955 31.7207642,13.6730507 C31.5158687,14.1143642 31.4134209,14.6101254 31.4134209,15.1603343 L31.4134209,15.1950806 C31.4134209,15.7911403 31.5079881,16.289409 31.6971224,16.690603 C31.8862567,17.091797 32.1527642,17.4270806 32.4966448,17.6964537 C32.8405254,17.9658269 33.2589134,18.1922149 33.751809,18.3756179 C34.2443463,18.5593791 34.7945552,18.7255881 35.4024358,18.874603 C35.906794,19.0006925 36.3162269,19.1206925 36.631809,19.2353194 C36.9470328,19.3503045 37.1931224,19.4645731 37.3711522,19.5792 C37.5488239,19.6941851 37.6691821,19.8170507 37.7322269,19.9492299 C37.7949134,20.0806925 37.826794,20.2325731 37.826794,20.4045134 L37.826794,20.4389015 C37.826794,20.7942448 37.6745552,21.0725731 37.3711522,21.2728119 C37.067391,21.4737672 36.640406,21.5737075 36.090197,21.5737075 C35.4024358,21.5737075 34.7687642,21.4422448 34.1902567,21.178603 C33.611391,20.914603 33.0468537,20.5592597 32.4966448,20.1125731 L30.9319881,21.9863642 C31.6541373,22.6400955 32.4561672,23.1240358 33.3391522,23.4392597 C34.2217791,23.7544836 35.1212418,23.9120955 36.0386149,23.9120955 C36.6919881,23.9120955 37.2869731,23.8286328 37.8239284,23.6627821 L37.8239284,23.6627821 Z M42.2460179,23.7401552 L44.9451224,23.7401552 L46.0455403,21.0410507 L51.1349731,21.0410507 L52.235391,23.7401552 L55.0036299,23.7401552 L49.8454209,11.6187224 L47.4038687,11.6187224 L42.2460179,23.7401552 Z M46.9912119,18.7026627 L48.5906149,14.7996179 L50.1893015,18.7026627 L46.9912119,18.7026627 Z M57.376406,23.7401552 L66.025003,23.7401552 L66.025003,21.332991 L60.0246448,21.332991 L60.0246448,11.7043343 L57.376406,11.7043343 L57.376406,23.7401552 Z M68.5349731,23.7401552 L77.682197,23.7401552 L77.682197,21.3849313 L71.1484657,21.3849313 L71.1484657,18.857409 L76.8224955,18.857409 L76.8224955,16.5014687 L71.1484657,16.5014687 L71.1484657,14.0602746 L77.5962269,14.0602746 L77.5962269,11.7043343 L68.5349731,11.7043343 L68.5349731,23.7401552 Z" id="Fill-6" fill="#57B947"></path>
                </g>
            </g>
        </g>
    </g>
</svg>