<?xml version="1.0" encoding="UTF-8" standalone="no"?>
<svg width="156px" height="48px" viewBox="0 0 156 48" version="1.1" xmlns="http://www.w3.org/2000/svg" xmlns:xlink="http://www.w3.org/1999/xlink">
    <!-- Generator: Sketch 41.2 (35397) - http://www.bohemiancoding.com/sketch -->
    <title>logo_color</title>
    <desc>Created with Sketch.</desc>
    <defs></defs>
    <g id="Page-1" stroke="none" stroke-width="1" fill="none" fill-rule="evenodd">
        <g id="logo_color">
            <g id="Symbols">
                <g id="top/white">
                    <g id="Group">
                        <g id="logo_color">
                            <path d="M5.98911044,11.0451582 L5.98911044,29.7859344 C5.98911044,36.0058746 11.0104836,41.065218 17.1788418,41.065218 C23.3479164,41.065218 28.3664238,36.0058746 28.3685732,29.7859344 L28.3685732,0.716561194 L28.3671402,0.716561194 L18.346603,13.3864119 L22.3771702,13.3864119 L22.3771702,29.7859344 C22.3771702,32.6752478 20.0466626,35.0265314 17.1788418,35.0265314 C14.3124537,35.0265314 11.979797,32.6752478 11.979797,29.7859344 L11.979797,7.26605374 L5.99054328,11.0451582 L5.98911044,11.0451582 Z" id="Fill-1" fill="#EB4E27"></path>
                            <path d="M-7.1641791e-05,29.7856478 C-7.1641791e-05,39.3376478 7.70715224,47.1050508 17.1789134,47.1050508 C26.651391,47.1050508 34.358615,39.3376478 34.358615,29.7856478 L34.358615,13.3861254 L38.3877492,13.3861254 L28.3686448,0.716274626 L28.3686448,29.7856478 C28.3664956,36.005588 23.347988,41.0663642 17.1789134,41.0663642 C11.0105552,41.0663642 5.98918208,36.005588 5.98918208,29.7856478 L5.98918208,11.0448716 L-7.1641791e-05,7.26648358 L-7.1641791e-05,29.7856478 Z" id="Fill-3" fill="#57B947"></path>
                            <path d="M39.5117374,47.4803104 L44.8074986,47.4803104 L44.8074986,40.258818 L48.8309014,40.258818 C50.1834986,40.258818 51.449409,40.0818626 52.630782,39.725803 C53.8114388,39.3704598 54.8430806,38.8381612 55.7257074,38.1267582 C56.607618,37.416788 57.3018268,36.5334448 57.806185,35.479594 C58.3105432,34.4250268 58.5627224,33.197803 58.5627224,31.7993552 L58.5627224,31.7312956 C58.5627224,30.4933254 58.3506626,29.3635344 57.9265432,28.3440716 C57.5017074,27.3238926 56.8949014,26.4477134 56.1039762,25.7126686 C55.3130508,24.9790568 54.350185,24.4116538 53.2153792,24.0104598 C52.0805732,23.6092656 50.7910208,23.4086686 49.3467224,23.4086686 L39.5117374,23.4086686 L39.5117374,47.4803104 Z M44.8074986,35.5476538 L44.8074986,28.2237134 L48.8996776,28.2237134 C50.2293492,28.2237134 51.2774686,28.5310568 52.046185,29.1478926 C52.814185,29.764012 53.198185,30.6645492 53.198185,31.8516538 L53.198185,31.9197134 C53.198185,32.9463402 52.8313792,33.808191 52.0977672,34.5038328 C51.3641552,35.200191 50.3325134,35.5476538 49.0028418,35.5476538 L44.8074986,35.5476538 Z M75.6478568,47.3255642 C76.7217672,46.9931462 77.6459462,46.5117134 78.420394,45.881982 C79.1948418,45.2515344 79.7980656,44.4720716 80.2314986,43.543594 C80.664215,42.6144 80.8812896,41.554818 80.8812896,40.361982 L80.8812896,40.293206 C80.8812896,39.2393552 80.7136478,38.3330866 80.3819462,37.5765492 C80.0495284,36.8207284 79.5566328,36.1616238 78.9032598,35.5999522 C78.2498866,35.0375642 77.446782,34.5561314 76.4960956,34.1549374 C75.5446926,33.7537432 74.4614686,33.393385 73.2464238,33.0717134 C72.214782,32.796609 71.3600956,32.5558926 70.6845134,32.3495642 C70.008215,32.1432358 69.4752,31.9261612 69.0854686,31.696191 C68.6950208,31.4669374 68.4263642,31.2097432 68.2773492,30.9224598 C68.127618,30.6358926 68.0538268,30.2984598 68.0538268,29.9087284 L68.0538268,29.8392358 C68.0538268,29.2431762 68.3117374,28.7452656 68.8275582,28.3440716 C69.3433792,27.9428776 70.1171104,27.7415642 71.1487522,27.7415642 C72.180394,27.7415642 73.2120358,27.9543402 74.2436776,28.3777432 C75.2753194,28.8018626 76.3291702,29.3807284 77.4073792,30.1143402 L80.1584238,26.1253254 C78.9204538,25.1395344 77.5621254,24.382997 76.0834388,23.8557134 C74.6047522,23.3291462 72.982782,23.064788 71.2175284,23.064788 C69.9795582,23.064788 68.846185,23.2374448 67.8188418,23.5813254 C66.790782,23.925206 65.9074388,24.418818 65.1666626,25.060012 C64.426603,25.7019224 63.8513194,26.464191 63.4415284,27.3461014 C63.0317374,28.2287284 62.8268418,29.2202508 62.8268418,30.3206686 L62.8268418,30.3901612 C62.8268418,31.5822806 63.0159762,32.578818 63.3942448,33.381206 C63.7725134,34.183594 64.3055284,34.8541612 64.9932896,35.3929074 C65.6810508,35.9316538 66.5178268,36.3844298 67.503618,36.7512358 C68.4886926,37.1187582 69.5891104,37.4511762 70.8048716,37.749206 C71.813588,38.001385 72.6324538,38.241385 73.263618,38.4706388 C73.8940656,38.700609 74.3862448,38.9291462 74.7423044,39.1584 C75.0976478,39.3883702 75.3383642,39.6341014 75.4644538,39.8984598 C75.5898268,40.161385 75.653588,40.4651462 75.653588,40.8090268 L75.653588,40.877803 C75.653588,41.5884896 75.3491104,42.1451462 74.7423044,42.5456238 C74.134782,42.9475344 73.280812,43.147415 72.180394,43.147415 C70.8048716,43.147415 69.5375284,42.8844896 68.3805134,42.357206 C67.222782,41.829206 66.0937074,41.1185194 64.9932896,40.2251462 L61.8639762,43.9727284 C63.3082746,45.280191 64.9123344,46.2480716 66.6783044,46.8785194 C68.4435582,47.5089672 70.2424836,47.824191 72.0772298,47.824191 C73.3839762,47.824191 74.5739462,47.6572656 75.6478568,47.3255642 L75.6478568,47.3255642 Z M84.4920358,47.4803104 L89.8902448,47.4803104 L92.0910806,42.0821014 L102.269946,42.0821014 L104.470782,47.4803104 L110.00726,47.4803104 L99.6908418,23.2374448 L94.8077374,23.2374448 L84.4920358,47.4803104 Z M93.9824238,37.4053254 L97.1812298,29.5992358 L100.378603,37.4053254 L93.9824238,37.4053254 Z M114.752812,47.4803104 L132.050006,47.4803104 L132.050006,42.665982 L120.04929,42.665982 L120.04929,23.4086686 L114.752812,23.4086686 L114.752812,47.4803104 Z M137.069946,47.4803104 L155.364394,47.4803104 L155.364394,42.7698626 L142.296931,42.7698626 L142.296931,37.714818 L153.644991,37.714818 L153.644991,33.0029374 L142.296931,33.0029374 L142.296931,28.1205492 L155.192454,28.1205492 L155.192454,23.4086686 L137.069946,23.4086686 L137.069946,47.4803104 Z" id="Fill-6" fill="#57B947"></path>
                        </g>
                    </g>
                </g>
            </g>
        </g>
    </g>
</svg>