<?xml version="1.0" encoding="UTF-8"?>
<svg width="56px" height="56px" viewBox="0 0 56 56" version="1.1" xmlns="http://www.w3.org/2000/svg" xmlns:xlink="http://www.w3.org/1999/xlink">
    <!-- Generator: Sketch 42 (36781) - http://www.bohemiancoding.com/sketch -->
    <title>marketing</title>
    <desc>Created with Sketch.</desc>
    <defs></defs>
    <g id="Desktop" stroke="none" stroke-width="1" fill="none" fill-rule="evenodd">
        <g id="Home" transform="translate(-772.000000, -1249.000000)">
            <g id="Services" transform="translate(-119.000000, 1000.000000)">
                <g id="marketing" transform="translate(891.000000, 249.000000)">
                    <path d="M44.4266667,19.1132302 L39.3866667,18.1798969 L45.92,11.6465636 L50.96,12.5798969 L44.4266667,19.1132302 Z M36.2133333,10.8998969 L42.9333333,4.1798969 L43.8666667,9.40656357 L37.3333333,15.9398969 L36.2133333,10.8998969 Z M29.8666667,20.4198969 C30.24,19.6732302 29.8666667,18.9265636 29.12,18.5532302 C27.2533333,17.6198969 25.0133333,17.2465636 22.96,17.2465636 C14.56,17.2465636 7.65333333,23.9665636 7.65333333,32.3665636 C7.65333333,40.7665636 14.56,47.6732302 22.96,47.6732302 C31.36,47.6732302 38.2666667,40.7665636 38.2666667,32.3665636 C38.2666667,30.1265636 37.8933333,28.0732302 36.96,26.2065636 C36.5866667,25.4598969 35.84,25.0865636 35.0933333,25.4598969 C34.3466667,25.8332302 34.16,26.5798969 34.3466667,27.3265636 C35.0933333,29.0065636 35.4666667,30.6865636 35.4666667,32.3665636 C35.4666667,39.2732302 29.8666667,44.8732302 22.96,44.8732302 C16.0533333,44.8732302 10.4533333,39.2732302 10.4533333,32.3665636 C10.4533333,25.4598969 16.0533333,19.8598969 22.96,19.8598969 C24.8266667,19.8598969 26.5066667,20.2332302 28,20.9798969 C28.7466667,21.3532302 29.4933333,20.9798969 29.8666667,20.4198969 L29.8666667,20.4198969 Z M22.96,27.6998969 C23.7066667,27.6998969 24.4533333,27.1398969 24.4533333,26.2065636 C24.4533333,25.2732302 23.8933333,24.7132302 22.96,24.7132302 C18.8533333,24.7132302 15.4933333,28.0732302 15.4933333,32.1798969 C15.4933333,36.2865636 18.8533333,39.6465636 22.96,39.6465636 C27.0666667,39.6465636 30.4266667,36.2865636 30.4266667,32.1798969 C30.4266667,31.4332302 29.8666667,30.6865636 28.9333333,30.6865636 C28,30.6865636 27.6266667,31.6198969 27.6266667,32.3665636 C27.6266667,34.9798969 25.5733333,37.0332302 22.96,37.0332302 C20.3466667,37.0332302 18.2933333,34.9798969 18.2933333,32.3665636 C18.2933333,29.7532302 20.3466667,27.6998969 22.96,27.6998969 L22.96,27.6998969 Z M42.56,23.4065636 C41.8133333,23.5932302 41.44,24.5265636 41.8133333,25.2732302 C42.7466667,27.5132302 43.12,29.9398969 43.12,32.3665636 C43.12,43.5665636 33.9733333,52.5265636 22.96,52.5265636 C11.9466667,52.5265636 2.8,43.5665636 2.8,32.3665636 C2.8,21.1665636 11.76,12.2065636 22.96,12.2065636 C25.0133333,12.2065636 27.2533333,12.5798969 29.3066667,13.1398969 C30.0533333,13.3265636 30.8,12.9532302 30.9866667,12.2065636 C31.1733333,11.4598969 30.8,10.7132302 30.0533333,10.5265636 C27.8133333,9.7798969 25.3866667,9.40656357 22.96,9.40656357 C10.2666667,9.40656357 0,19.6732302 0,32.3665636 C0,45.0598969 10.2666667,55.3265636 22.96,55.3265636 C35.6533333,55.3265636 45.92,45.0598969 45.92,32.3665636 C45.92,29.5665636 45.36,26.7665636 44.4266667,24.1532302 C44.24,23.5932302 43.3066667,23.2198969 42.56,23.4065636 L42.56,23.4065636 Z" fill="#EB4E27"></path>
                    <path d="M55.2533333,11.0865636 C55.0666667,10.5265636 54.6933333,10.1532302 54.1333333,10.1532302 L46.48,8.84656357 L45.1733333,1.19323024 C45.1733333,0.633230238 44.8,0.259896904 44.24,0.0732302378 C43.68,-0.113436429 43.12,0.0732302378 42.7466667,0.446563571 L33.6,9.59323024 C33.2266667,9.96656357 33.04,10.3398969 33.2266667,10.8998969 L34.72,18.7398969 L22.96,30.4998969 L22.7733333,30.4998969 C21.6533333,30.4998969 20.72,31.4332302 20.72,32.5532302 C20.72,33.6732302 21.6533333,34.6065636 22.7733333,34.6065636 C23.8933333,34.6065636 24.8266667,33.6732302 24.8266667,32.5532302 L36.7733333,20.6065636 L44.4266667,22.0998969 L44.6133333,22.0998969 C44.9866667,22.0998969 45.36,21.9132302 45.5466667,21.7265636 L54.6933333,12.5798969 C55.2533333,12.2065636 55.44,11.6465636 55.2533333,11.0865636 L55.2533333,11.0865636 Z" id="Path" fill="#57B947"></path>
                </g>
            </g>
        </g>
    </g>
</svg>