<?xml version="1.0" encoding="UTF-8"?>
<svg width="16px" height="16px" viewBox="0 0 16 16" version="1.1" xmlns="http://www.w3.org/2000/svg" xmlns:xlink="http://www.w3.org/1999/xlink">
    <!-- Generator: Sketch 42 (36781) - http://www.bohemiancoding.com/sketch -->
    <title>phone_white</title>
    <desc>Created with Sketch.</desc>
    <defs></defs>
    <g id="Symbols" stroke="none" stroke-width="1" fill="none" fill-rule="evenodd">
        <g id="top/transparent" transform="translate(-399.000000, -16.000000)" fill="#FFFFFF">
            <g id="Group">
                <g id="mid" transform="translate(399.000000, 16.000000)">
                    <g id="contact">
                        <path d="M7.6609932,9.84028959 C6.28901656,8.71214766 5.37293694,7.32007313 4.89132644,6.52797977 L4.53207663,5.85071038 C4.65768845,5.71593629 5.61558942,4.69020494 6.03069955,4.13367068 C6.55235805,3.43482562 5.79602711,2.80366317 5.79602711,2.80366317 C5.79602711,2.80366317 3.66786731,0.67520781 3.1828579,0.253004314 C2.69784849,-0.169790297 2.13954089,0.0650299184 2.13954089,0.0650299184 C1.12016402,0.723679195 0.0633991649,1.29632132 2.1400149e-06,4.05032355 C-0.00236231779,6.62876478 1.95496541,9.28818869 4.07159848,11.3470403 C6.19163045,13.672189 9.10242579,16.0026577 11.9165739,15.9999977 C14.6702806,15.9371918 15.2427749,14.880427 15.9014242,13.8611979 C15.9014242,13.8611979 16.1363922,13.3033336 15.7140409,12.8177331 C15.2913941,12.3325759 13.1626432,10.2039728 13.1626432,10.2039728 C13.1626432,10.2039728 12.5319241,9.44749404 11.8329312,9.96959588 C11.3121594,10.3589925 10.376573,11.225123 10.1512106,11.4351164 C10.1516539,11.4358553 8.58682621,10.6014972 7.6609932,9.84028959" id="phone_white"></path>
                    </g>
                </g>
            </g>
        </g>
    </g>
</svg>