<?xml version="1.0" encoding="UTF-8"?>
<svg width="56px" height="56px" viewBox="0 0 56 56" version="1.1" xmlns="http://www.w3.org/2000/svg" xmlns:xlink="http://www.w3.org/1999/xlink">
    <!-- Generator: Sketch 42 (36781) - http://www.bohemiancoding.com/sketch -->
    <title>seo</title>
    <desc>Created with Sketch.</desc>
    <defs></defs>
    <g id="Desktop" stroke="none" stroke-width="1" fill="none" fill-rule="evenodd">
        <g id="Home" transform="translate(-572.000000, -1384.000000)">
            <g id="Services" transform="translate(-119.000000, 1000.000000)">
                <g id="seo" transform="translate(691.000000, 384.000000)">
                    <path d="M56,51.33296 C56,52.5808267 55.5137333,53.75216 54.6326667,54.6332267 C53.7236,55.5432267 52.5270667,55.99776 51.3324,55.99776 C50.1377333,55.99776 48.9430667,55.54416 48.034,54.6332267 L36.974,43.57416 C36.61,43.21016 36.61,42.6184267 36.974,42.2534933 C37.3389333,41.8904267 37.9297333,41.8904267 38.2937333,42.2534933 L49.3537333,53.3134933 C50.4466667,54.4054933 52.2218667,54.4036267 53.3129333,53.31256 C53.8412,52.7852267 54.1333333,52.0814933 54.1333333,51.33296 C54.1333333,50.58536 53.8412,49.88256 53.3129333,49.3542933 L47.4338667,43.4752267 L45.4617333,45.4576267 C45.0986667,45.82536 44.5088,45.8262933 44.142,45.46136 C43.7761333,45.09736 43.7742667,44.5084267 44.1382667,44.14256 L46.7702667,41.4946933 C46.9457333,41.3192267 47.1837333,41.2202933 47.4310667,41.2202933 L47.432,41.2202933 C47.6802667,41.2202933 47.9173333,41.3192267 48.0918667,41.49376 L54.6326667,48.03456 C55.5137333,48.9146933 56,50.08696 56,51.33296 M42.2529333,36.9736267 C41.8889333,37.33856 41.8889333,37.9302933 42.2529333,38.29336 L44.2334667,40.2738933 C44.4154667,40.45776 44.6544,40.54736 44.8933333,40.54736 C45.1313333,40.54736 45.3702667,40.45776 45.5532,40.2738933 C45.9172,39.9108267 45.9172,39.3200267 45.5532,38.95416 L43.5736,36.9736267 C43.2086667,36.61056 42.6178667,36.61056 42.2529333,36.9736267 M22.4,44.7996267 C10.0492,44.7996267 0,34.7504267 0,22.3996267 C0,10.04976 10.0492,-0.000373333333 22.4,-0.000373333333 C34.7508,-0.000373333333 44.8,10.04976 44.8,22.3996267 C44.8,34.7504267 34.7508,44.7996267 22.4,44.7996267 M42.9333333,22.3996267 C42.9333333,11.0782933 33.7222667,1.86629333 22.4,1.86629333 C11.0777333,1.86629333 1.86666667,11.0782933 1.86666667,22.3996267 C1.86666667,33.7228267 11.0777333,42.93296 22.4,42.93296 C33.7222667,42.93296 42.9333333,33.7228267 42.9333333,22.3996267 M41.0666667,22.3996267 C41.0666667,32.6924267 32.6928,41.0662933 22.4,41.0662933 C12.1072,41.0662933 3.73333333,32.6924267 3.73333333,22.3996267 C3.73333333,12.10776 12.1072,3.73296 22.4,3.73296 C32.6928,3.73296 41.0666667,12.10776 41.0666667,22.3996267 M39.2,22.3996267 C39.2,13.1372267 31.6633333,5.59962667 22.4,5.59962667 C13.1366667,5.59962667 5.6,13.1372267 5.6,22.3996267 C5.6,31.6638933 13.1366667,39.1996267 22.4,39.1996267 C31.6633333,39.1996267 39.2,31.6638933 39.2,22.3996267" fill="#EB4E27"></path>
                    <path d="M32.6666667,24.2662933 C33.1828,24.2662933 33.6,24.6844267 33.6,25.1996267 C33.6,25.7148267 33.1828,26.13296 32.6666667,26.13296 L21.4666667,26.13296 C20.9505333,26.13296 20.5333333,25.7148267 20.5333333,25.1996267 C20.5333333,24.6844267 20.9505333,24.2662933 21.4666667,24.2662933 L32.6666667,24.2662933 Z M32.6666667,18.6662933 C33.1828,18.6662933 33.6,19.0844267 33.6,19.5996267 C33.6,20.1148267 33.1828,20.53296 32.6666667,20.53296 L28.9333333,20.53296 C28.4172,20.53296 28,20.1148267 28,19.5996267 C28,19.0844267 28.4172,18.6662933 28.9333333,18.6662933 L32.6666667,18.6662933 Z M28.9333333,29.8662933 C29.4494667,29.8662933 29.8666667,30.2844267 29.8666667,30.7996267 C29.8666667,31.31576 29.4494667,31.73296 28.9333333,31.73296 L25.2,31.73296 C24.6838667,31.73296 24.2666667,31.31576 24.2666667,30.7996267 C24.2666667,30.2844267 24.6838667,29.8662933 25.2,29.8662933 L28.9333333,29.8662933 Z M21.4666667,29.8662933 C21.9828,29.8662933 22.4,30.2844267 22.4,30.7996267 C22.4,31.31576 21.9828,31.73296 21.4666667,31.73296 L14,31.73296 C13.4838667,31.73296 13.0666667,31.31576 13.0666667,30.7996267 C13.0666667,30.2844267 13.4838667,29.8662933 14,29.8662933 L21.4666667,29.8662933 Z M18.6666667,25.1996267 C18.6666667,25.7148267 18.2494667,26.13296 17.7333333,26.13296 L12.1333333,26.13296 C11.6172,26.13296 11.2,25.7148267 11.2,25.1996267 C11.2,24.6844267 11.6172,24.2662933 12.1333333,24.2662933 L17.7333333,24.2662933 C18.2494667,24.2662933 18.6666667,24.6844267 18.6666667,25.1996267 Z M12.1333333,20.53296 C11.6172,20.53296 11.2,20.1148267 11.2,19.5996267 C11.2,19.0844267 11.6172,18.6662933 12.1333333,18.6662933 L25.2,18.6662933 C25.7161333,18.6662933 26.1333333,19.0844267 26.1333333,19.5996267 C26.1333333,20.1148267 25.7161333,20.53296 25.2,20.53296 L12.1333333,20.53296 Z M15.8666667,14.93296 C15.3505333,14.93296 14.9333333,14.5148267 14.9333333,13.9996267 C14.9333333,13.4844267 15.3505333,13.0662933 15.8666667,13.0662933 L27.0666667,13.0662933 C27.5828,13.0662933 28,13.4844267 28,13.9996267 C28,14.5148267 27.5828,14.93296 27.0666667,14.93296 L15.8666667,14.93296 Z" id="Combined-Shape" fill="#57B947"></path>
                </g>
            </g>
        </g>
    </g>
</svg>