<?xml version="1.0" encoding="UTF-8" standalone="no"?>
<svg width="24px" height="24px" viewBox="0 0 24 24" version="1.1" xmlns="http://www.w3.org/2000/svg" xmlns:xlink="http://www.w3.org/1999/xlink">
    <!-- Generator: Sketch 41.2 (35397) - http://www.bohemiancoding.com/sketch -->
    <title>share copy</title>
    <desc>Created with Sketch.</desc>
    <defs></defs>
    <g id="Desktop" stroke="none" stroke-width="1" fill="none" fill-rule="evenodd" opacity="0.3">
        <g id="Blog-Home-2" transform="translate(-1136.000000, -232.000000)" fill="#0F2632">
            <g id="share-copy" transform="translate(1136.000000, 232.000000)">
                <path d="M21.9776199,0.0496795031 L13.7938186,0.0496795031 C13.1080547,0.0496795031 12.5515329,0.606201242 12.5515329,1.29191553 C12.5515329,1.97762981 13.1080547,2.53415155 13.7938186,2.53415155 L19.6720795,2.53415155 L8.28320994,13.7888099 C7.79630311,14.2707975 7.79128447,15.0558907 8.27327205,15.5478161 C8.5168,15.7962634 8.83476273,15.915518 9.1577441,15.915518 C9.47078758,15.915518 9.7888,15.7962634 10.032328,15.5578037 L21.4360547,4.28818882 L21.4360547,10.1763876 C21.4360547,10.8621019 21.9925764,11.4186236 22.6782907,11.4186236 C23.3639553,11.4186236 23.9205267,10.8621019 23.9205267,10.1763876 L23.9205267,1.99750559 C23.9205267,0.904337888 23.0658186,0.0496795031 21.9776199,0.0496795031" id="Fill-1"></path>
                <path d="M22.6782708,13.9343851 C21.9925565,13.9343851 21.4360348,14.4908571 21.4360348,15.1766211 L21.4360348,21.4857391 L2.48448199,21.4857391 L2.48448199,2.53413665 L8.78122733,2.53413665 C9.46694161,2.53413665 10.0234634,1.9776646 10.0234634,1.29190062 C10.0234634,0.606236025 9.46694161,0.0496645963 8.78122733,0.0496645963 L2.02733913,0.0496645963 C0.909326708,0.0496645963 9.93788854e-06,0.904372671 9.93788854e-06,1.95778882 L9.93788854e-06,21.9478509 C9.93788854e-06,23.0261118 0.949078261,23.9751304 2.02733913,23.9751304 L22.0174012,23.9751304 C23.0857242,23.9751304 23.9205068,23.0857391 23.9205068,21.9478509 L23.9205068,15.1815901 C23.9205068,14.4908571 23.3689043,13.9343851 22.6782708,13.9343851" id="Fill-4"></path>
            </g>
        </g>
    </g>
</svg>