<?xml version="1.0" encoding="UTF-8"?>
<svg width="58px" height="56px" viewBox="0 0 58 56" version="1.1" xmlns="http://www.w3.org/2000/svg" xmlns:xlink="http://www.w3.org/1999/xlink">
    <!-- Generator: Sketch 42 (36781) - http://www.bohemiancoding.com/sketch -->
    <title>social</title>
    <desc>Created with Sketch.</desc>
    <defs></defs>
    <g id="Desktop" stroke="none" stroke-width="1" fill="none" fill-rule="evenodd">
        <g id="Home" transform="translate(-959.000000, -1384.000000)">
            <g id="Services" transform="translate(-119.000000, 1000.000000)">
                <g id="social" transform="translate(1078.000000, 384.000000)">
                    <path d="M48.7723871,37.9372903 C45.7845161,37.9372903 43.3530323,40.3687742 43.3530323,43.3566452 C43.3530323,46.3445161 45.7845161,48.776 48.7723871,48.776 C51.7602581,48.776 54.1917419,46.3445161 54.1917419,43.3566452 C54.1917419,40.3687742 51.7602581,37.9372903 48.7723871,37.9372903 L48.7723871,37.9372903 Z M48.7723871,52.3889032 C43.792,52.3889032 39.740129,48.3370323 39.740129,43.3566452 C39.740129,38.3762581 43.792,34.3243871 48.7723871,34.3243871 C53.7527742,34.3243871 57.8046452,38.3762581 57.8046452,43.3566452 C57.8046452,48.3370323 53.7527742,52.3889032 48.7723871,52.3889032 L48.7723871,52.3889032 Z M28.9032258,3.61290323 C25.9153548,3.61290323 23.483871,6.0443871 23.483871,9.03225806 C23.483871,12.020129 25.9153548,14.4516129 28.9032258,14.4516129 C31.8910968,14.4516129 34.3225806,12.020129 34.3225806,9.03225806 C34.3225806,6.0443871 31.8910968,3.61290323 28.9032258,3.61290323 L28.9032258,3.61290323 Z M28.9032258,18.0645161 C23.9228387,18.0645161 19.8709677,14.0126452 19.8709677,9.03225806 C19.8709677,4.05187097 23.9228387,0 28.9032258,0 C33.8836129,0 37.9354839,4.05187097 37.9354839,9.03225806 C37.9354839,14.0126452 33.8836129,18.0645161 28.9032258,18.0645161 L28.9032258,18.0645161 Z M9.03225806,37.9372903 C6.0443871,37.9372903 3.61290323,40.3687742 3.61290323,43.3566452 C3.61290323,46.3445161 6.0443871,48.776 9.03225806,48.776 C12.020129,48.776 14.4516129,46.3445161 14.4516129,43.3566452 C14.4516129,40.3687742 12.020129,37.9372903 9.03225806,37.9372903 L9.03225806,37.9372903 Z M9.03225806,52.3889032 C4.05187097,52.3889032 0,48.3370323 0,43.3566452 C0,38.3762581 4.05187097,34.3243871 9.03225806,34.3243871 C14.0126452,34.3243871 18.0645161,38.3762581 18.0645161,43.3566452 C18.0645161,48.3370323 14.0126452,52.3889032 9.03225806,52.3889032 L9.03225806,52.3889032 Z M6.86451613,38.2967742 C6.39483871,38.2967742 5.92516129,38.1143226 5.58193548,37.7729032 C5.25677419,37.4296774 5.05806452,36.9780645 5.05806452,36.4903226 C5.05806452,36.0188387 5.25677419,35.5491613 5.58193548,35.2258065 C6.2683871,34.5393548 7.47870968,34.5393548 8.14709677,35.2258065 C8.47225806,35.5509677 8.67096774,36.0188387 8.67096774,36.4903226 C8.67096774,36.9780645 8.47225806,37.4459355 8.14709677,37.7729032 C7.80387097,38.116129 7.33419355,38.2967742 6.86451613,38.2967742 L6.86451613,38.2967742 Z M21.803871,11.9948387 C21.316129,11.9948387 20.8464516,11.8141935 20.5212903,11.4709677 C20.1780645,11.1277419 19.9974194,10.676129 19.9974194,10.1883871 C19.9974194,9.71870968 20.1780645,9.24903226 20.5212903,8.92387097 C21.1896774,8.23741935 22.4,8.23741935 23.0683871,8.92387097 C23.4116129,9.24903226 23.6103226,9.71870968 23.6103226,10.1883871 C23.6103226,10.6580645 23.4116129,11.1277419 23.0683871,11.4709677 C22.7432258,11.8141935 22.2735484,11.9948387 21.803871,11.9948387 L21.803871,11.9948387 Z M43.7883871,50.3819355 C43.2988387,50.3819355 42.8472258,50.1850323 42.5058065,49.84 C42.1625806,49.5148387 41.9819355,49.0451613 41.9819355,48.5574194 C41.9819355,48.0877419 42.1625806,47.6162581 42.5058065,47.2929032 C43.1723871,46.6245161 44.3827097,46.6245161 45.0510968,47.2929032 C45.3943226,47.6180645 45.5948387,48.0877419 45.5948387,48.5574194 C45.5948387,49.0451613 45.396129,49.5148387 45.0510968,49.84 C44.7277419,50.1832258 44.2580645,50.3819355 43.7883871,50.3819355 L43.7883871,50.3819355 Z M14.0180645,50.3819355 C13.5483871,50.3819355 13.0787097,50.1850323 12.7354839,49.84 C12.4103226,49.5148387 12.2116129,49.0451613 12.2116129,48.5574194 C12.2116129,48.0877419 12.4103226,47.6162581 12.7354839,47.2929032 C13.403871,46.6245161 14.6322581,46.6064516 15.3006452,47.2929032 C15.6258065,47.6180645 15.8245161,48.0877419 15.8245161,48.5574194 C15.8245161,49.0451613 15.6258065,49.5148387 15.3006452,49.84 C14.9574194,50.1832258 14.4877419,50.3819355 14.0180645,50.3819355 L14.0180645,50.3819355 Z M36.0188387,11.9948387 C35.5310968,11.9948387 35.0632258,11.796129 34.7344516,11.4709677 C34.3948387,11.1277419 34.2123871,10.6580645 34.2123871,10.1883871 C34.2123871,9.71870968 34.3948387,9.24903226 34.7344516,8.90580645 C35.4046452,8.23741935 36.6149677,8.23741935 37.2833548,8.90580645 C37.6265806,9.24903226 37.8252903,9.71870968 37.8252903,10.1883871 C37.8252903,10.6580645 37.6283871,11.1277419 37.2833548,11.4709677 C36.96,11.796129 36.4903226,11.9948387 36.0188387,11.9948387 L36.0188387,11.9948387 Z M50.9419355,38.2967742 C50.4704516,38.2967742 50.0007742,38.1143226 49.6593548,37.7729032 C49.316129,37.4296774 49.1354839,36.9780645 49.1354839,36.4903226 C49.1354839,36.0188387 49.316129,35.5672258 49.6593548,35.2258065 C50.3259355,34.5393548 51.5380645,34.5393548 52.2046452,35.2258065 C52.547871,35.5509677 52.7483871,36.0188387 52.7483871,36.4903226 C52.7483871,36.9780645 52.5496774,37.4296774 52.2245161,37.7729032 C51.8812903,38.116129 51.4116129,38.2967742 50.9419355,38.2967742 L50.9419355,38.2967742 Z" fill="#EB4E27" fill-rule="nonzero"></path>
                    <path d="M51.2345806,30.0683871 C50.3548387,30.0683871 49.5834839,29.4252903 49.4498065,28.5274839 C49.0740645,26.003871 48.2430968,23.5976774 46.9803871,21.3775484 L46.9785806,21.3739355 C45.715871,19.1556129 44.0738065,17.2064516 42.0939355,15.5788387 C41.3243871,14.9447742 41.2141935,13.8067097 41.8464516,13.0353548 C42.4805161,12.2658065 43.6167742,12.1556129 44.3899355,12.787871 C46.7076129,14.6954839 48.6350968,16.9806452 50.1163871,19.5819355 L50.1181935,19.5855484 C51.6030968,22.195871 52.5803871,25.0247742 53.0229677,27.9927742 C53.1692903,28.9790968 52.4882581,29.8985806 51.5019355,30.0467097 L51.2345806,30.0683871 Z M28.9032258,56 L28.896,56 C25.9406452,56 23.0485161,55.4707097 20.3027097,54.4283871 C19.3705806,54.076129 18.9009032,53.032 19.2549677,52.099871 C19.6090323,51.164129 20.6567742,50.6962581 21.5852903,51.052129 C23.9210323,51.9372903 26.3796129,52.3870968 28.896,52.3870968 L28.9032258,52.3870968 C31.4178065,52.3870968 33.8763871,51.9390968 36.2085161,51.0557419 C37.1460645,50.7089032 38.1865806,51.1713548 38.5388387,52.1052903 C38.8910968,53.0392258 38.4214194,54.0833548 37.4892903,54.4356129 C34.7434839,55.4725161 31.8567742,56 28.9032258,56 Z M6.57548387,30.0449032 L6.30451613,30.0250323 C5.31819355,29.8769032 4.63896774,28.9574194 4.78709677,27.9710968 C5.23148387,25.0049032 6.2123871,22.1778065 7.69909677,19.5692903 L7.70090323,19.5656774 C9.184,16.9643871 11.1150968,14.6792258 13.4363871,12.7734194 C14.2095484,12.1411613 15.3476129,12.2531613 15.979871,13.0245161 C16.6139355,13.795871 16.500129,14.9339355 15.7287742,15.5661935 C13.7489032,17.1901935 12.1050323,19.1375484 10.8405161,21.3522581 L10.8387097,21.355871 C9.57058065,23.576 8.73780645,25.9821935 8.35845161,28.5058065 C8.22477419,29.4018065 7.45341935,30.0449032 6.57548387,30.0449032 Z" id="Combined-Shape" fill="#57B947"></path>
                </g>
            </g>
        </g>
    </g>
</svg>