<?xml version="1.0" encoding="UTF-8"?>
<svg width="29px" height="24px" viewBox="0 0 29 24" version="1.1" xmlns="http://www.w3.org/2000/svg" xmlns:xlink="http://www.w3.org/1999/xlink">
    <!-- Generator: Sketch 42 (36781) - http://www.bohemiancoding.com/sketch -->
    <title>subscribe</title>
    <desc>Created with Sketch.</desc>
    <defs></defs>
    <g id="Desktop" stroke="none" stroke-width="1" fill="none" fill-rule="evenodd">
        <g id="Blog-Home" transform="translate(-16.000000, -560.000000)" fill="#FFFFFF">
            <g id="Header">
                <path d="M33.5133984,568.433008 L39.3515528,568.433008 L39.3515528,566.487666 L33.5133984,566.487666 L33.5133984,568.433008 Z M39.3515528,569.730967 L33.5133984,569.730967 C32.7978705,569.730967 32.2154392,569.150665 32.2154392,568.433008 L32.2154392,566.487666 C32.2154392,565.771074 32.7978705,565.189707 33.5133984,565.189707 L39.3515528,565.189707 C40.0681455,565.189707 40.649512,565.770009 40.649512,566.487666 L40.649512,568.433008 C40.649512,569.149601 40.0692103,569.730967 39.3515528,569.730967 L39.3515528,569.730967 Z M23.7845608,578.163975 L40.0010648,578.163975 C40.3588287,578.163975 40.649512,578.453594 40.649512,578.811358 C40.649512,579.169122 40.3588287,579.45874 40.0010648,579.45874 L23.7845608,579.45874 C23.4267968,579.45874 23.1350488,579.169122 23.1350488,578.811358 C23.1350488,578.453594 23.4267968,578.163975 23.7845608,578.163975 L23.7845608,578.163975 Z M23.7845608,574.91961 L40.0010648,574.91961 C40.3588287,574.91961 40.649512,575.209228 40.649512,575.569122 C40.649512,575.926886 40.3588287,576.217569 40.0010648,576.217569 L23.7845608,576.217569 C23.4267968,576.217569 23.1350488,575.926886 23.1350488,575.569122 C23.1350488,575.209228 23.4267968,574.91961 23.7845608,574.91961 L23.7845608,574.91961 Z M23.7845608,571.676309 L40.0010648,571.676309 C40.3588287,571.676309 40.649512,571.965927 40.649512,572.325821 C40.649512,572.683585 40.3588287,572.973203 40.0010648,572.973203 L23.7845608,572.973203 C23.4267968,572.973203 23.1350488,572.683585 23.1350488,572.325821 C23.1350488,571.965927 23.4267968,571.676309 23.7845608,571.676309 L23.7845608,571.676309 Z M23.7845608,568.433008 L29.6227152,568.433008 C29.9804791,568.433008 30.2700976,568.722626 30.2700976,569.08252 C30.2700976,569.440284 29.9804791,569.730967 29.6227152,569.730967 L23.7845608,569.730967 C23.4267968,569.730967 23.1350488,569.440284 23.1350488,569.08252 C23.1350488,568.722626 23.4267968,568.433008 23.7845608,568.433008 L23.7845608,568.433008 Z M23.7845608,565.189707 L29.6227152,565.189707 C29.9804791,565.189707 30.2700976,565.48039 30.2700976,565.83709 C30.2700976,566.195918 29.9804791,566.486602 29.6227152,566.486602 L23.7845608,566.486602 C23.4267968,566.486602 23.1350488,566.195918 23.1350488,565.83709 C23.1350488,565.48039 23.4267968,565.189707 23.7845608,565.189707 L23.7845608,565.189707 Z M20.5423248,582.703106 L43.2443656,582.703106 L43.2443656,561.296894 L20.5423248,561.296894 L20.5423248,582.703106 Z M19.2433008,579.686602 L19.2433008,578.487666 L19.2433008,571.676309 L17.2979592,571.676309 L17.2979592,578.487666 L17.2979592,579.686602 L17.2979592,581.729902 C17.2979592,582.267613 17.7323869,582.70417 18.2711624,582.70417 C18.8078083,582.70417 19.2443656,582.267613 19.2443656,581.729902 L19.2443656,579.686602 L19.2433008,579.686602 Z M43.2443656,584 L21.1886424,584 L20.54126,584 L17.9453416,584 C17.8175688,584 17.7057675,583.95315 17.6056788,583.889264 C16.6771961,583.602839 16,582.752085 16,581.728838 C16,581.655368 16.0149068,581.584028 16.0223602,581.511624 C16.0149068,581.475421 16,581.444543 16,581.405146 L16,571.026797 C16,570.667968 16.2906832,570.377285 16.6484472,570.377285 L19.2433008,570.377285 L19.2433008,561.29583 C19.2433008,560.580302 19.8236025,560 20.54126,560 L43.2443656,560 C43.9598935,560 44.5423248,560.580302 44.5423248,561.29583 L44.5423248,582.703106 C44.5423248,583.419698 43.9598935,584 43.2443656,584 L43.2443656,584 Z" id="subscribe"></path>
            </g>
        </g>
    </g>
</svg>