<?xml version="1.0" encoding="UTF-8" standalone="no"?>
<svg width="29px" height="24px" viewBox="0 0 29 24" version="1.1" xmlns="http://www.w3.org/2000/svg" xmlns:xlink="http://www.w3.org/1999/xlink">
    <!-- Generator: Sketch 41.2 (35397) - http://www.bohemiancoding.com/sketch -->
    <title>subscribe copy</title>
    <desc>Created with Sketch.</desc>
    <defs></defs>
    <g id="Desktop" stroke="none" stroke-width="1" fill="none" fill-rule="evenodd" opacity="0.3">
        <g id="Blog-Home-2" transform="translate(-40.000000, -232.000000)" fill="#0F2632">
            <path d="M57.5133984,240.433008 L63.3515528,240.433008 L63.3515528,238.487666 L57.5133984,238.487666 L57.5133984,240.433008 Z M63.3515528,241.730967 L57.5133984,241.730967 C56.7978705,241.730967 56.2154392,241.150665 56.2154392,240.433008 L56.2154392,238.487666 C56.2154392,237.771074 56.7978705,237.189707 57.5133984,237.189707 L63.3515528,237.189707 C64.0681455,237.189707 64.649512,237.770009 64.649512,238.487666 L64.649512,240.433008 C64.649512,241.149601 64.0692103,241.730967 63.3515528,241.730967 L63.3515528,241.730967 Z M47.7845608,250.163975 L64.0010648,250.163975 C64.3588287,250.163975 64.649512,250.453594 64.649512,250.811358 C64.649512,251.169122 64.3588287,251.45874 64.0010648,251.45874 L47.7845608,251.45874 C47.4267968,251.45874 47.1350488,251.169122 47.1350488,250.811358 C47.1350488,250.453594 47.4267968,250.163975 47.7845608,250.163975 L47.7845608,250.163975 Z M47.7845608,246.91961 L64.0010648,246.91961 C64.3588287,246.91961 64.649512,247.209228 64.649512,247.569122 C64.649512,247.926886 64.3588287,248.217569 64.0010648,248.217569 L47.7845608,248.217569 C47.4267968,248.217569 47.1350488,247.926886 47.1350488,247.569122 C47.1350488,247.209228 47.4267968,246.91961 47.7845608,246.91961 L47.7845608,246.91961 Z M47.7845608,243.676309 L64.0010648,243.676309 C64.3588287,243.676309 64.649512,243.965927 64.649512,244.325821 C64.649512,244.683585 64.3588287,244.973203 64.0010648,244.973203 L47.7845608,244.973203 C47.4267968,244.973203 47.1350488,244.683585 47.1350488,244.325821 C47.1350488,243.965927 47.4267968,243.676309 47.7845608,243.676309 L47.7845608,243.676309 Z M47.7845608,240.433008 L53.6227152,240.433008 C53.9804791,240.433008 54.2700976,240.722626 54.2700976,241.08252 C54.2700976,241.440284 53.9804791,241.730967 53.6227152,241.730967 L47.7845608,241.730967 C47.4267968,241.730967 47.1350488,241.440284 47.1350488,241.08252 C47.1350488,240.722626 47.4267968,240.433008 47.7845608,240.433008 L47.7845608,240.433008 Z M47.7845608,237.189707 L53.6227152,237.189707 C53.9804791,237.189707 54.2700976,237.48039 54.2700976,237.83709 C54.2700976,238.195918 53.9804791,238.486602 53.6227152,238.486602 L47.7845608,238.486602 C47.4267968,238.486602 47.1350488,238.195918 47.1350488,237.83709 C47.1350488,237.48039 47.4267968,237.189707 47.7845608,237.189707 L47.7845608,237.189707 Z M44.5423248,254.703106 L67.2443656,254.703106 L67.2443656,233.296894 L44.5423248,233.296894 L44.5423248,254.703106 Z M43.2433008,251.686602 L43.2433008,250.487666 L43.2433008,243.676309 L41.2979592,243.676309 L41.2979592,250.487666 L41.2979592,251.686602 L41.2979592,253.729902 C41.2979592,254.267613 41.7323869,254.70417 42.2711624,254.70417 C42.8078083,254.70417 43.2443656,254.267613 43.2443656,253.729902 L43.2443656,251.686602 L43.2433008,251.686602 Z M67.2443656,256 L45.1886424,256 L44.54126,256 L41.9453416,256 C41.8175688,256 41.7057675,255.95315 41.6056788,255.889264 C40.6771961,255.602839 40,254.752085 40,253.728838 C40,253.655368 40.0149068,253.584028 40.0223602,253.511624 C40.0149068,253.475421 40,253.444543 40,253.405146 L40,243.026797 C40,242.667968 40.2906832,242.377285 40.6484472,242.377285 L43.2433008,242.377285 L43.2433008,233.29583 C43.2433008,232.580302 43.8236025,232 44.54126,232 L67.2443656,232 C67.9598935,232 68.5423248,232.580302 68.5423248,233.29583 L68.5423248,254.703106 C68.5423248,255.419698 67.9598935,256 67.2443656,256 L67.2443656,256 Z" id="subscribe-copy"></path>
        </g>
    </g>
</svg>