<?xml version="1.0" encoding="UTF-8"?>
<svg width="24px" height="24px" viewBox="0 0 24 24" version="1.1" xmlns="http://www.w3.org/2000/svg" xmlns:xlink="http://www.w3.org/1999/xlink">
    <!-- Generator: Sketch 42 (36781) - http://www.bohemiancoding.com/sketch -->
    <title>🔻 icons/twitter</title>
    <desc>Created with Sketch.</desc>
    <defs>
        <path d="M24,4.30832708 C23.1170293,4.70067517 22.1687922,4.96549137 21.1710428,5.08327082 C22.1882971,4.47411853 22.9692423,3.50937734 23.3375844,2.36009002 C22.3855964,2.92348087 21.3315829,3.33458365 20.2108027,3.5543886 C19.312078,2.59789947 18.0322581,2 16.6151538,2 C13.8957239,2 11.6924231,4.20405101 11.6924231,6.92348087 C11.6924231,7.30907727 11.7351838,7.68567142 11.8192048,8.04576144 C7.72693173,7.84021005 4.09902476,5.87996999 1.66991748,2.90097524 C1.2468117,3.62865716 1.00375094,4.47411853 1.00375094,5.37659415 C1.00375094,7.08552138 1.8732183,8.59189797 3.19354839,9.4756189 C2.38709677,9.44936234 1.62790698,9.2288072 0.963990998,8.85971493 C0.96324081,8.87996999 0.96324081,8.90172543 0.96324081,8.92123031 C0.96324081,11.3075769 2.66016504,13.2970743 4.91297824,13.7501875 C4.50037509,13.8612153 4.06526632,13.9219805 3.61590398,13.9219805 C3.29782446,13.9219805 2.99024756,13.8912228 2.69017254,13.8349587 C3.31582896,15.7899475 5.13503376,17.2138035 7.28882221,17.2543136 C5.60465116,18.5746437 3.48162041,19.3623406 1.1747937,19.3623406 C0.777194299,19.3623406 0.384846212,19.339835 0,19.2940735 C2.17854464,20.6894224 4.76669167,21.5048762 7.54763691,21.5048762 C16.603901,21.5048762 21.5573893,14.0022506 21.5573893,7.49512378 C21.5573893,7.28207052 21.5506377,7.06901725 21.5423856,6.85746437 C22.5048762,6.16354089 23.3390848,5.29707427 24,4.30832708" id="path-1"></path>
    </defs>
    <g id="Symbols" stroke="none" stroke-width="1" fill="none" fill-rule="evenodd">
        <g id="🔻-icons/twitter">
            <mask id="mask-2" fill="white">
                <use xlink:href="#path-1"></use>
            </mask>
            <use id="twitter" fill="#FFFFFF" xlink:href="#path-1"></use>
            <g id="🌈-color/white" mask="url(#mask-2)" fill="#FFFFFF">
                <rect id="white" x="0" y="0" width="24" height="24"></rect>
            </g>
        </g>
    </g>
</svg>